<mxfile host="Electron" modified="2024-02-22T02:32:06.434Z" agent="Mozilla/5.0 (Windows NT 10.0; Win64; x64) AppleWebKit/537.36 (KHTML, like Gecko) draw.io/23.1.5 Chrome/120.0.6099.109 Electron/28.1.0 Safari/537.36" etag="UbYkQJmeBUpe6VzHmdjk" version="23.1.5" type="device">
  <diagram name="Page-1" id="rvPp-DxHp3Gl0vOQw-LP">
    <mxGraphModel dx="6586" dy="3344" grid="1" gridSize="10" guides="1" tooltips="1" connect="1" arrows="1" fold="1" page="1" pageScale="1" pageWidth="850" pageHeight="1100" math="0" shadow="0">
      <root>
        <mxCell id="0" />
        <mxCell id="1" parent="0" />
        <mxCell id="JUW6Wjf1Q6uM7Mt5fkci-18" value="" style="rounded=0;whiteSpace=wrap;html=1;" vertex="1" parent="1">
          <mxGeometry x="120" y="1490" width="600" height="80" as="geometry" />
        </mxCell>
        <mxCell id="KmdwmGQSH-RsYxy0vz8b-1" value="Trivia Game App Phase 1" style="rounded=0;whiteSpace=wrap;html=1;" parent="1" vertex="1">
          <mxGeometry x="120" y="40" width="600" height="60" as="geometry" />
        </mxCell>
        <mxCell id="KmdwmGQSH-RsYxy0vz8b-2" value="" style="rounded=0;whiteSpace=wrap;html=1;" parent="1" vertex="1">
          <mxGeometry x="120" y="200" width="600" height="80" as="geometry" />
        </mxCell>
        <mxCell id="KmdwmGQSH-RsYxy0vz8b-4" value="Title" style="rounded=0;whiteSpace=wrap;html=1;" parent="1" vertex="1">
          <mxGeometry x="130" y="210" width="230" height="60" as="geometry" />
        </mxCell>
        <mxCell id="IjRfKQ2glnTJ_HeXnQH4-3" style="edgeStyle=orthogonalEdgeStyle;rounded=0;orthogonalLoop=1;jettySize=auto;html=1;exitX=0.5;exitY=1;exitDx=0;exitDy=0;" parent="1" source="IjRfKQ2glnTJ_HeXnQH4-2" target="KmdwmGQSH-RsYxy0vz8b-4" edge="1">
          <mxGeometry relative="1" as="geometry" />
        </mxCell>
        <mxCell id="IjRfKQ2glnTJ_HeXnQH4-2" value="Title Object" style="rounded=0;whiteSpace=wrap;html=1;" parent="1" vertex="1">
          <mxGeometry x="130" y="120" width="230" height="60" as="geometry" />
        </mxCell>
        <mxCell id="IjRfKQ2glnTJ_HeXnQH4-9" style="edgeStyle=orthogonalEdgeStyle;rounded=0;orthogonalLoop=1;jettySize=auto;html=1;exitX=0.5;exitY=1;exitDx=0;exitDy=0;entryX=0.5;entryY=0;entryDx=0;entryDy=0;" parent="1" source="IjRfKQ2glnTJ_HeXnQH4-4" target="IjRfKQ2glnTJ_HeXnQH4-6" edge="1">
          <mxGeometry relative="1" as="geometry" />
        </mxCell>
        <mxCell id="IjRfKQ2glnTJ_HeXnQH4-4" value="Score Object" style="rounded=0;whiteSpace=wrap;html=1;" parent="1" vertex="1">
          <mxGeometry x="400" y="120" width="130" height="60" as="geometry" />
        </mxCell>
        <mxCell id="IjRfKQ2glnTJ_HeXnQH4-5" value="Play Again" style="rounded=0;whiteSpace=wrap;html=1;" parent="1" vertex="1">
          <mxGeometry x="570" y="210" width="130" height="60" as="geometry" />
        </mxCell>
        <mxCell id="IjRfKQ2glnTJ_HeXnQH4-6" value="Score" style="rounded=0;whiteSpace=wrap;html=1;" parent="1" vertex="1">
          <mxGeometry x="400" y="210" width="130" height="60" as="geometry" />
        </mxCell>
        <mxCell id="IjRfKQ2glnTJ_HeXnQH4-8" style="edgeStyle=orthogonalEdgeStyle;rounded=0;orthogonalLoop=1;jettySize=auto;html=1;exitX=0.5;exitY=1;exitDx=0;exitDy=0;" parent="1" source="IjRfKQ2glnTJ_HeXnQH4-7" target="IjRfKQ2glnTJ_HeXnQH4-5" edge="1">
          <mxGeometry relative="1" as="geometry" />
        </mxCell>
        <mxCell id="IjRfKQ2glnTJ_HeXnQH4-7" value="Play Again Button" style="rounded=0;whiteSpace=wrap;html=1;" parent="1" vertex="1">
          <mxGeometry x="570" y="120" width="130" height="60" as="geometry" />
        </mxCell>
        <mxCell id="IjRfKQ2glnTJ_HeXnQH4-11" value="" style="rounded=0;whiteSpace=wrap;html=1;" parent="1" vertex="1">
          <mxGeometry x="120" y="280" width="600" height="400" as="geometry" />
        </mxCell>
        <mxCell id="IjRfKQ2glnTJ_HeXnQH4-12" value="Question" style="rounded=0;whiteSpace=wrap;html=1;" parent="1" vertex="1">
          <mxGeometry x="190" y="310" width="345" height="60" as="geometry" />
        </mxCell>
        <mxCell id="IjRfKQ2glnTJ_HeXnQH4-14" value="Answer" style="rounded=0;whiteSpace=wrap;html=1;" parent="1" vertex="1">
          <mxGeometry x="190" y="410" width="200" height="60" as="geometry" />
        </mxCell>
        <mxCell id="IjRfKQ2glnTJ_HeXnQH4-15" value="Answer" style="rounded=0;whiteSpace=wrap;html=1;" parent="1" vertex="1">
          <mxGeometry x="450" y="410" width="200" height="60" as="geometry" />
        </mxCell>
        <mxCell id="IjRfKQ2glnTJ_HeXnQH4-16" value="Answer" style="rounded=0;whiteSpace=wrap;html=1;" parent="1" vertex="1">
          <mxGeometry x="190" y="500" width="200" height="60" as="geometry" />
        </mxCell>
        <mxCell id="IjRfKQ2glnTJ_HeXnQH4-17" value="Answer" style="rounded=0;whiteSpace=wrap;html=1;" parent="1" vertex="1">
          <mxGeometry x="450" y="500" width="200" height="60" as="geometry" />
        </mxCell>
        <mxCell id="IjRfKQ2glnTJ_HeXnQH4-18" value="" style="rounded=0;whiteSpace=wrap;html=1;" parent="1" vertex="1">
          <mxGeometry x="130" y="460" width="40" height="40" as="geometry" />
        </mxCell>
        <mxCell id="IjRfKQ2glnTJ_HeXnQH4-19" value="" style="rounded=0;whiteSpace=wrap;html=1;" parent="1" vertex="1">
          <mxGeometry x="670" y="460" width="40" height="40" as="geometry" />
        </mxCell>
        <mxCell id="IjRfKQ2glnTJ_HeXnQH4-20" value="" style="shape=flexArrow;endArrow=classic;html=1;rounded=0;entryX=-0.024;entryY=0.165;entryDx=0;entryDy=0;entryPerimeter=0;width=18.333333333333336;endSize=7.016666666666667;endWidth=13.888888888888888;" parent="1" edge="1">
          <mxGeometry width="50" height="50" relative="1" as="geometry">
            <mxPoint x="672.4" y="479.68" as="sourcePoint" />
            <mxPoint x="707.6" y="479.5800000000001" as="targetPoint" />
          </mxGeometry>
        </mxCell>
        <mxCell id="IjRfKQ2glnTJ_HeXnQH4-21" value="" style="shape=flexArrow;endArrow=classic;html=1;rounded=0;entryX=-0.024;entryY=0.165;entryDx=0;entryDy=0;entryPerimeter=0;width=18.333333333333336;endSize=7.016666666666667;endWidth=13.888888888888888;" parent="1" edge="1">
          <mxGeometry width="50" height="50" relative="1" as="geometry">
            <mxPoint x="167.60000000000002" y="479.58000000000015" as="sourcePoint" />
            <mxPoint x="132.4" y="479.58000000000004" as="targetPoint" />
          </mxGeometry>
        </mxCell>
        <mxCell id="IjRfKQ2glnTJ_HeXnQH4-23" value="Footer Component" style="rounded=0;whiteSpace=wrap;html=1;" parent="1" vertex="1">
          <mxGeometry x="120" y="680" width="600" height="80" as="geometry" />
        </mxCell>
        <mxCell id="IjRfKQ2glnTJ_HeXnQH4-24" value="Github Repo" style="whiteSpace=wrap;html=1;aspect=fixed;" parent="1" vertex="1">
          <mxGeometry x="640" y="690" width="60" height="60" as="geometry" />
        </mxCell>
        <mxCell id="IjRfKQ2glnTJ_HeXnQH4-29" style="edgeStyle=orthogonalEdgeStyle;rounded=0;orthogonalLoop=1;jettySize=auto;html=1;exitX=0;exitY=0.5;exitDx=0;exitDy=0;entryX=1;entryY=0.5;entryDx=0;entryDy=0;" parent="1" source="IjRfKQ2glnTJ_HeXnQH4-25" target="IjRfKQ2glnTJ_HeXnQH4-12" edge="1">
          <mxGeometry relative="1" as="geometry" />
        </mxCell>
        <mxCell id="IjRfKQ2glnTJ_HeXnQH4-25" value="Question Object" style="rounded=0;whiteSpace=wrap;html=1;" parent="1" vertex="1">
          <mxGeometry x="740" y="320" width="200" height="40" as="geometry" />
        </mxCell>
        <mxCell id="IjRfKQ2glnTJ_HeXnQH4-26" value="Card Component" style="rounded=0;whiteSpace=wrap;html=1;" parent="1" vertex="1">
          <mxGeometry x="740" y="420" width="200" height="40" as="geometry" />
        </mxCell>
        <mxCell id="IjRfKQ2glnTJ_HeXnQH4-28" style="edgeStyle=orthogonalEdgeStyle;rounded=0;orthogonalLoop=1;jettySize=auto;html=1;exitX=0;exitY=0.5;exitDx=0;exitDy=0;entryX=0.997;entryY=0.399;entryDx=0;entryDy=0;entryPerimeter=0;" parent="1" source="IjRfKQ2glnTJ_HeXnQH4-26" target="IjRfKQ2glnTJ_HeXnQH4-11" edge="1">
          <mxGeometry relative="1" as="geometry" />
        </mxCell>
        <mxCell id="IjRfKQ2glnTJ_HeXnQH4-33" style="edgeStyle=orthogonalEdgeStyle;rounded=0;orthogonalLoop=1;jettySize=auto;html=1;exitX=1;exitY=0.5;exitDx=0;exitDy=0;" parent="1" source="IjRfKQ2glnTJ_HeXnQH4-30" target="IjRfKQ2glnTJ_HeXnQH4-16" edge="1">
          <mxGeometry relative="1" as="geometry" />
        </mxCell>
        <mxCell id="IjRfKQ2glnTJ_HeXnQH4-30" value="Answer" style="rounded=0;whiteSpace=wrap;html=1;" parent="1" vertex="1">
          <mxGeometry x="-110" y="510" width="200" height="40" as="geometry" />
        </mxCell>
        <mxCell id="IjRfKQ2glnTJ_HeXnQH4-32" style="edgeStyle=orthogonalEdgeStyle;rounded=0;orthogonalLoop=1;jettySize=auto;html=1;exitX=1;exitY=0.5;exitDx=0;exitDy=0;" parent="1" source="IjRfKQ2glnTJ_HeXnQH4-31" edge="1">
          <mxGeometry relative="1" as="geometry">
            <mxPoint x="130" y="480" as="targetPoint" />
          </mxGeometry>
        </mxCell>
        <mxCell id="IjRfKQ2glnTJ_HeXnQH4-31" value="Nav Button" style="rounded=0;whiteSpace=wrap;html=1;" parent="1" vertex="1">
          <mxGeometry x="-110" y="460" width="200" height="40" as="geometry" />
        </mxCell>
        <mxCell id="JUW6Wjf1Q6uM7Mt5fkci-1" value="Topic" style="rounded=0;whiteSpace=wrap;html=1;" vertex="1" parent="1">
          <mxGeometry x="130" y="1500" width="230" height="60" as="geometry" />
        </mxCell>
        <mxCell id="JUW6Wjf1Q6uM7Mt5fkci-2" value="Play Again" style="rounded=0;whiteSpace=wrap;html=1;" vertex="1" parent="1">
          <mxGeometry x="570" y="1500" width="130" height="60" as="geometry" />
        </mxCell>
        <mxCell id="JUW6Wjf1Q6uM7Mt5fkci-3" value="Score" style="rounded=0;whiteSpace=wrap;html=1;" vertex="1" parent="1">
          <mxGeometry x="400" y="1500" width="130" height="60" as="geometry" />
        </mxCell>
        <mxCell id="JUW6Wjf1Q6uM7Mt5fkci-4" value="" style="rounded=0;whiteSpace=wrap;html=1;" vertex="1" parent="1">
          <mxGeometry x="120" y="1570" width="600" height="400" as="geometry" />
        </mxCell>
        <mxCell id="JUW6Wjf1Q6uM7Mt5fkci-5" value="Question" style="rounded=0;whiteSpace=wrap;html=1;" vertex="1" parent="1">
          <mxGeometry x="190" y="1600" width="345" height="60" as="geometry" />
        </mxCell>
        <mxCell id="JUW6Wjf1Q6uM7Mt5fkci-6" value="Answer" style="rounded=0;whiteSpace=wrap;html=1;" vertex="1" parent="1">
          <mxGeometry x="190" y="1700" width="200" height="60" as="geometry" />
        </mxCell>
        <mxCell id="JUW6Wjf1Q6uM7Mt5fkci-7" value="Answer" style="rounded=0;whiteSpace=wrap;html=1;" vertex="1" parent="1">
          <mxGeometry x="450" y="1700" width="200" height="60" as="geometry" />
        </mxCell>
        <mxCell id="JUW6Wjf1Q6uM7Mt5fkci-8" value="Answer" style="rounded=0;whiteSpace=wrap;html=1;" vertex="1" parent="1">
          <mxGeometry x="190" y="1790" width="200" height="60" as="geometry" />
        </mxCell>
        <mxCell id="JUW6Wjf1Q6uM7Mt5fkci-9" value="Answer" style="rounded=0;whiteSpace=wrap;html=1;" vertex="1" parent="1">
          <mxGeometry x="450" y="1790" width="200" height="60" as="geometry" />
        </mxCell>
        <mxCell id="JUW6Wjf1Q6uM7Mt5fkci-10" value="" style="rounded=0;whiteSpace=wrap;html=1;" vertex="1" parent="1">
          <mxGeometry x="130" y="1750" width="40" height="40" as="geometry" />
        </mxCell>
        <mxCell id="JUW6Wjf1Q6uM7Mt5fkci-11" value="" style="rounded=0;whiteSpace=wrap;html=1;" vertex="1" parent="1">
          <mxGeometry x="670" y="1750" width="40" height="40" as="geometry" />
        </mxCell>
        <mxCell id="JUW6Wjf1Q6uM7Mt5fkci-12" value="" style="shape=flexArrow;endArrow=classic;html=1;rounded=0;entryX=-0.024;entryY=0.165;entryDx=0;entryDy=0;entryPerimeter=0;width=18.333333333333336;endSize=7.016666666666667;endWidth=13.888888888888888;" edge="1" parent="1">
          <mxGeometry width="50" height="50" relative="1" as="geometry">
            <mxPoint x="672.4" y="1769.68" as="sourcePoint" />
            <mxPoint x="707.6" y="1769.5800000000002" as="targetPoint" />
          </mxGeometry>
        </mxCell>
        <mxCell id="JUW6Wjf1Q6uM7Mt5fkci-13" value="" style="shape=flexArrow;endArrow=classic;html=1;rounded=0;entryX=-0.024;entryY=0.165;entryDx=0;entryDy=0;entryPerimeter=0;width=18.333333333333336;endSize=7.016666666666667;endWidth=13.888888888888888;" edge="1" parent="1">
          <mxGeometry width="50" height="50" relative="1" as="geometry">
            <mxPoint x="167.60000000000002" y="1769.5800000000002" as="sourcePoint" />
            <mxPoint x="132.4" y="1769.58" as="targetPoint" />
          </mxGeometry>
        </mxCell>
        <mxCell id="JUW6Wjf1Q6uM7Mt5fkci-14" value="Footer Component" style="rounded=0;whiteSpace=wrap;html=1;" vertex="1" parent="1">
          <mxGeometry x="120" y="1970" width="600" height="80" as="geometry" />
        </mxCell>
        <mxCell id="JUW6Wjf1Q6uM7Mt5fkci-15" value="Github Repo" style="whiteSpace=wrap;html=1;aspect=fixed;" vertex="1" parent="1">
          <mxGeometry x="640" y="1980" width="60" height="60" as="geometry" />
        </mxCell>
        <mxCell id="JUW6Wjf1Q6uM7Mt5fkci-19" value="Trivia Game App Phase 2" style="rounded=0;whiteSpace=wrap;html=1;" vertex="1" parent="1">
          <mxGeometry x="120" y="1130" width="600" height="60" as="geometry" />
        </mxCell>
        <mxCell id="JUW6Wjf1Q6uM7Mt5fkci-20" value="" style="rounded=0;whiteSpace=wrap;html=1;" vertex="1" parent="1">
          <mxGeometry x="120" y="1410" width="600" height="80" as="geometry" />
        </mxCell>
        <mxCell id="JUW6Wjf1Q6uM7Mt5fkci-21" value="Logo" style="rounded=0;whiteSpace=wrap;html=1;" vertex="1" parent="1">
          <mxGeometry x="310" y="1420" width="230" height="60" as="geometry" />
        </mxCell>
        <mxCell id="JUW6Wjf1Q6uM7Mt5fkci-27" style="edgeStyle=orthogonalEdgeStyle;rounded=0;orthogonalLoop=1;jettySize=auto;html=1;entryX=1;entryY=0.5;entryDx=0;entryDy=0;" edge="1" parent="1" source="JUW6Wjf1Q6uM7Mt5fkci-22" target="JUW6Wjf1Q6uM7Mt5fkci-23">
          <mxGeometry relative="1" as="geometry" />
        </mxCell>
        <mxCell id="JUW6Wjf1Q6uM7Mt5fkci-22" value="Hamburger" style="rounded=0;whiteSpace=wrap;html=1;" vertex="1" parent="1">
          <mxGeometry x="140" y="1430" width="40" height="40" as="geometry" />
        </mxCell>
        <mxCell id="JUW6Wjf1Q6uM7Mt5fkci-23" value="Hamburger Menu" style="swimlane;fontStyle=0;childLayout=stackLayout;horizontal=1;startSize=30;horizontalStack=0;resizeParent=1;resizeParentMax=0;resizeLast=0;collapsible=1;marginBottom=0;whiteSpace=wrap;html=1;" vertex="1" parent="1">
          <mxGeometry x="-50" y="1390" width="140" height="180" as="geometry" />
        </mxCell>
        <mxCell id="JUW6Wjf1Q6uM7Mt5fkci-24" value="Home" style="text;strokeColor=none;fillColor=none;align=left;verticalAlign=middle;spacingLeft=4;spacingRight=4;overflow=hidden;points=[[0,0.5],[1,0.5]];portConstraint=eastwest;rotatable=0;whiteSpace=wrap;html=1;" vertex="1" parent="JUW6Wjf1Q6uM7Mt5fkci-23">
          <mxGeometry y="30" width="140" height="30" as="geometry" />
        </mxCell>
        <mxCell id="JUW6Wjf1Q6uM7Mt5fkci-25" value="Account/sign in" style="text;strokeColor=none;fillColor=none;align=left;verticalAlign=middle;spacingLeft=4;spacingRight=4;overflow=hidden;points=[[0,0.5],[1,0.5]];portConstraint=eastwest;rotatable=0;whiteSpace=wrap;html=1;" vertex="1" parent="JUW6Wjf1Q6uM7Mt5fkci-23">
          <mxGeometry y="60" width="140" height="30" as="geometry" />
        </mxCell>
        <mxCell id="JUW6Wjf1Q6uM7Mt5fkci-26" value="Your Topic" style="text;strokeColor=none;fillColor=none;align=left;verticalAlign=middle;spacingLeft=4;spacingRight=4;overflow=hidden;points=[[0,0.5],[1,0.5]];portConstraint=eastwest;rotatable=0;whiteSpace=wrap;html=1;" vertex="1" parent="JUW6Wjf1Q6uM7Mt5fkci-23">
          <mxGeometry y="90" width="140" height="30" as="geometry" />
        </mxCell>
        <mxCell id="JUW6Wjf1Q6uM7Mt5fkci-28" value="Public Topics" style="text;strokeColor=none;fillColor=none;align=left;verticalAlign=middle;spacingLeft=4;spacingRight=4;overflow=hidden;points=[[0,0.5],[1,0.5]];portConstraint=eastwest;rotatable=0;whiteSpace=wrap;html=1;" vertex="1" parent="JUW6Wjf1Q6uM7Mt5fkci-23">
          <mxGeometry y="120" width="140" height="30" as="geometry" />
        </mxCell>
        <mxCell id="JUW6Wjf1Q6uM7Mt5fkci-30" value="About" style="text;strokeColor=none;fillColor=none;align=left;verticalAlign=middle;spacingLeft=4;spacingRight=4;overflow=hidden;points=[[0,0.5],[1,0.5]];portConstraint=eastwest;rotatable=0;whiteSpace=wrap;html=1;" vertex="1" parent="JUW6Wjf1Q6uM7Mt5fkci-23">
          <mxGeometry y="150" width="140" height="30" as="geometry" />
        </mxCell>
        <mxCell id="JUW6Wjf1Q6uM7Mt5fkci-31" value="Play Area" style="rounded=0;whiteSpace=wrap;html=1;" vertex="1" parent="1">
          <mxGeometry x="120" y="1210" width="600" height="60" as="geometry" />
        </mxCell>
        <mxCell id="JUW6Wjf1Q6uM7Mt5fkci-32" style="edgeStyle=orthogonalEdgeStyle;rounded=0;orthogonalLoop=1;jettySize=auto;html=1;entryX=0.512;entryY=-0.05;entryDx=0;entryDy=0;entryPerimeter=0;" edge="1" parent="1" source="JUW6Wjf1Q6uM7Mt5fkci-31" target="JUW6Wjf1Q6uM7Mt5fkci-20">
          <mxGeometry relative="1" as="geometry" />
        </mxCell>
        <mxCell id="JUW6Wjf1Q6uM7Mt5fkci-36" value="Score" style="rounded=0;whiteSpace=wrap;html=1;" vertex="1" parent="1">
          <mxGeometry x="-465" y="1780" width="130" height="60" as="geometry" />
        </mxCell>
        <mxCell id="JUW6Wjf1Q6uM7Mt5fkci-37" value="" style="rounded=0;whiteSpace=wrap;html=1;" vertex="1" parent="1">
          <mxGeometry x="-700" y="1500" width="600" height="480" as="geometry" />
        </mxCell>
        <mxCell id="JUW6Wjf1Q6uM7Mt5fkci-47" value="Footer Component" style="rounded=0;whiteSpace=wrap;html=1;" vertex="1" parent="1">
          <mxGeometry x="-700" y="1980" width="600" height="80" as="geometry" />
        </mxCell>
        <mxCell id="JUW6Wjf1Q6uM7Mt5fkci-48" value="Github Repo" style="whiteSpace=wrap;html=1;aspect=fixed;" vertex="1" parent="1">
          <mxGeometry x="-180" y="1990" width="60" height="60" as="geometry" />
        </mxCell>
        <mxCell id="JUW6Wjf1Q6uM7Mt5fkci-49" value="" style="rounded=0;whiteSpace=wrap;html=1;" vertex="1" parent="1">
          <mxGeometry x="-700" y="1420" width="600" height="80" as="geometry" />
        </mxCell>
        <mxCell id="JUW6Wjf1Q6uM7Mt5fkci-50" value="Logo" style="rounded=0;whiteSpace=wrap;html=1;" vertex="1" parent="1">
          <mxGeometry x="-510" y="1430" width="230" height="60" as="geometry" />
        </mxCell>
        <mxCell id="JUW6Wjf1Q6uM7Mt5fkci-51" value="Hamburger" style="rounded=0;whiteSpace=wrap;html=1;" vertex="1" parent="1">
          <mxGeometry x="-680" y="1440" width="40" height="40" as="geometry" />
        </mxCell>
        <mxCell id="JUW6Wjf1Q6uM7Mt5fkci-34" value="Home Page Graphic" style="rounded=0;whiteSpace=wrap;html=1;" vertex="1" parent="1">
          <mxGeometry x="-510" y="1560" width="230" height="140" as="geometry" />
        </mxCell>
        <mxCell id="JUW6Wjf1Q6uM7Mt5fkci-52" value="Home Page Text" style="rounded=1;whiteSpace=wrap;html=1;" vertex="1" parent="1">
          <mxGeometry x="-580" y="1720" width="370" height="260" as="geometry" />
        </mxCell>
        <mxCell id="JUW6Wjf1Q6uM7Mt5fkci-53" value="Sign In/ Up" style="rounded=0;whiteSpace=wrap;html=1;" vertex="1" parent="1">
          <mxGeometry x="-250" y="1430" width="130" height="60" as="geometry" />
        </mxCell>
        <mxCell id="JUW6Wjf1Q6uM7Mt5fkci-55" style="edgeStyle=orthogonalEdgeStyle;rounded=0;orthogonalLoop=1;jettySize=auto;html=1;" edge="1" parent="1" source="JUW6Wjf1Q6uM7Mt5fkci-54" target="JUW6Wjf1Q6uM7Mt5fkci-49">
          <mxGeometry relative="1" as="geometry" />
        </mxCell>
        <mxCell id="JUW6Wjf1Q6uM7Mt5fkci-54" value="Home Page" style="rounded=0;whiteSpace=wrap;html=1;" vertex="1" parent="1">
          <mxGeometry x="-695" y="1210" width="600" height="60" as="geometry" />
        </mxCell>
        <mxCell id="JUW6Wjf1Q6uM7Mt5fkci-68" value="Score" style="rounded=0;whiteSpace=wrap;html=1;" vertex="1" parent="1">
          <mxGeometry x="1285" y="1770" width="130" height="60" as="geometry" />
        </mxCell>
        <mxCell id="JUW6Wjf1Q6uM7Mt5fkci-69" value="" style="rounded=0;whiteSpace=wrap;html=1;" vertex="1" parent="1">
          <mxGeometry x="1050" y="1490" width="600" height="480" as="geometry" />
        </mxCell>
        <mxCell id="JUW6Wjf1Q6uM7Mt5fkci-70" value="Footer Component" style="rounded=0;whiteSpace=wrap;html=1;" vertex="1" parent="1">
          <mxGeometry x="1050" y="1970" width="600" height="80" as="geometry" />
        </mxCell>
        <mxCell id="JUW6Wjf1Q6uM7Mt5fkci-71" value="Github Repo" style="whiteSpace=wrap;html=1;aspect=fixed;" vertex="1" parent="1">
          <mxGeometry x="1570" y="1980" width="60" height="60" as="geometry" />
        </mxCell>
        <mxCell id="JUW6Wjf1Q6uM7Mt5fkci-72" value="" style="rounded=0;whiteSpace=wrap;html=1;" vertex="1" parent="1">
          <mxGeometry x="1050" y="1410" width="600" height="80" as="geometry" />
        </mxCell>
        <mxCell id="JUW6Wjf1Q6uM7Mt5fkci-73" value="Logo" style="rounded=0;whiteSpace=wrap;html=1;" vertex="1" parent="1">
          <mxGeometry x="1240" y="1420" width="230" height="60" as="geometry" />
        </mxCell>
        <mxCell id="JUW6Wjf1Q6uM7Mt5fkci-74" value="Hamburger" style="rounded=0;whiteSpace=wrap;html=1;" vertex="1" parent="1">
          <mxGeometry x="1070" y="1430" width="40" height="40" as="geometry" />
        </mxCell>
        <mxCell id="JUW6Wjf1Q6uM7Mt5fkci-75" value="Sign In Graphic" style="rounded=0;whiteSpace=wrap;html=1;" vertex="1" parent="1">
          <mxGeometry x="1240" y="1550" width="230" height="70" as="geometry" />
        </mxCell>
        <mxCell id="JUW6Wjf1Q6uM7Mt5fkci-78" style="edgeStyle=orthogonalEdgeStyle;rounded=0;orthogonalLoop=1;jettySize=auto;html=1;" edge="1" parent="1" source="JUW6Wjf1Q6uM7Mt5fkci-79" target="JUW6Wjf1Q6uM7Mt5fkci-72">
          <mxGeometry relative="1" as="geometry" />
        </mxCell>
        <mxCell id="JUW6Wjf1Q6uM7Mt5fkci-79" value="Sign In" style="rounded=0;whiteSpace=wrap;html=1;" vertex="1" parent="1">
          <mxGeometry x="1055" y="1200" width="600" height="60" as="geometry" />
        </mxCell>
        <mxCell id="JUW6Wjf1Q6uM7Mt5fkci-80" value="Score" style="rounded=0;whiteSpace=wrap;html=1;" vertex="1" parent="1">
          <mxGeometry x="2165" y="1770" width="130" height="60" as="geometry" />
        </mxCell>
        <mxCell id="JUW6Wjf1Q6uM7Mt5fkci-81" value="" style="rounded=0;whiteSpace=wrap;html=1;" vertex="1" parent="1">
          <mxGeometry x="1930" y="1490" width="600" height="480" as="geometry" />
        </mxCell>
        <mxCell id="JUW6Wjf1Q6uM7Mt5fkci-82" value="Footer Component" style="rounded=0;whiteSpace=wrap;html=1;" vertex="1" parent="1">
          <mxGeometry x="1930" y="1970" width="600" height="80" as="geometry" />
        </mxCell>
        <mxCell id="JUW6Wjf1Q6uM7Mt5fkci-83" value="Github Repo" style="whiteSpace=wrap;html=1;aspect=fixed;" vertex="1" parent="1">
          <mxGeometry x="2450" y="1980" width="60" height="60" as="geometry" />
        </mxCell>
        <mxCell id="JUW6Wjf1Q6uM7Mt5fkci-84" value="" style="rounded=0;whiteSpace=wrap;html=1;" vertex="1" parent="1">
          <mxGeometry x="1930" y="1410" width="600" height="80" as="geometry" />
        </mxCell>
        <mxCell id="JUW6Wjf1Q6uM7Mt5fkci-85" value="Logo" style="rounded=0;whiteSpace=wrap;html=1;" vertex="1" parent="1">
          <mxGeometry x="2120" y="1420" width="230" height="60" as="geometry" />
        </mxCell>
        <mxCell id="JUW6Wjf1Q6uM7Mt5fkci-86" value="Hamburger" style="rounded=0;whiteSpace=wrap;html=1;" vertex="1" parent="1">
          <mxGeometry x="1950" y="1430" width="40" height="40" as="geometry" />
        </mxCell>
        <mxCell id="JUW6Wjf1Q6uM7Mt5fkci-87" value="Account Page Graphic" style="rounded=0;whiteSpace=wrap;html=1;" vertex="1" parent="1">
          <mxGeometry x="2120" y="1550" width="230" height="70" as="geometry" />
        </mxCell>
        <mxCell id="JUW6Wjf1Q6uM7Mt5fkci-90" style="edgeStyle=orthogonalEdgeStyle;rounded=0;orthogonalLoop=1;jettySize=auto;html=1;" edge="1" parent="1" source="JUW6Wjf1Q6uM7Mt5fkci-91" target="JUW6Wjf1Q6uM7Mt5fkci-84">
          <mxGeometry relative="1" as="geometry" />
        </mxCell>
        <mxCell id="JUW6Wjf1Q6uM7Mt5fkci-91" value="Account" style="rounded=0;whiteSpace=wrap;html=1;" vertex="1" parent="1">
          <mxGeometry x="1935" y="1200" width="600" height="60" as="geometry" />
        </mxCell>
        <mxCell id="JUW6Wjf1Q6uM7Mt5fkci-92" value="Score" style="rounded=0;whiteSpace=wrap;html=1;" vertex="1" parent="1">
          <mxGeometry x="-470" y="2960" width="130" height="60" as="geometry" />
        </mxCell>
        <mxCell id="JUW6Wjf1Q6uM7Mt5fkci-93" value="" style="rounded=0;whiteSpace=wrap;html=1;" vertex="1" parent="1">
          <mxGeometry x="-705" y="2680" width="600" height="480" as="geometry" />
        </mxCell>
        <mxCell id="JUW6Wjf1Q6uM7Mt5fkci-94" value="Footer Component" style="rounded=0;whiteSpace=wrap;html=1;" vertex="1" parent="1">
          <mxGeometry x="-705" y="3160" width="600" height="80" as="geometry" />
        </mxCell>
        <mxCell id="JUW6Wjf1Q6uM7Mt5fkci-95" value="Github Repo" style="whiteSpace=wrap;html=1;aspect=fixed;" vertex="1" parent="1">
          <mxGeometry x="-185" y="3170" width="60" height="60" as="geometry" />
        </mxCell>
        <mxCell id="JUW6Wjf1Q6uM7Mt5fkci-96" value="" style="rounded=0;whiteSpace=wrap;html=1;" vertex="1" parent="1">
          <mxGeometry x="-705" y="2600" width="600" height="80" as="geometry" />
        </mxCell>
        <mxCell id="JUW6Wjf1Q6uM7Mt5fkci-97" value="Logo" style="rounded=0;whiteSpace=wrap;html=1;" vertex="1" parent="1">
          <mxGeometry x="-515" y="2610" width="230" height="60" as="geometry" />
        </mxCell>
        <mxCell id="JUW6Wjf1Q6uM7Mt5fkci-98" value="Hamburger" style="rounded=0;whiteSpace=wrap;html=1;" vertex="1" parent="1">
          <mxGeometry x="-685" y="2620" width="40" height="40" as="geometry" />
        </mxCell>
        <mxCell id="JUW6Wjf1Q6uM7Mt5fkci-99" value="User Topics Page Graphic" style="rounded=0;whiteSpace=wrap;html=1;" vertex="1" parent="1">
          <mxGeometry x="-515" y="2720" width="230" height="80" as="geometry" />
        </mxCell>
        <mxCell id="JUW6Wjf1Q6uM7Mt5fkci-102" style="edgeStyle=orthogonalEdgeStyle;rounded=0;orthogonalLoop=1;jettySize=auto;html=1;" edge="1" parent="1" source="JUW6Wjf1Q6uM7Mt5fkci-103" target="JUW6Wjf1Q6uM7Mt5fkci-96">
          <mxGeometry relative="1" as="geometry" />
        </mxCell>
        <mxCell id="JUW6Wjf1Q6uM7Mt5fkci-103" value="User Topics" style="rounded=0;whiteSpace=wrap;html=1;" vertex="1" parent="1">
          <mxGeometry x="-700" y="2390" width="600" height="60" as="geometry" />
        </mxCell>
        <mxCell id="JUW6Wjf1Q6uM7Mt5fkci-104" value="Score" style="rounded=0;whiteSpace=wrap;html=1;" vertex="1" parent="1">
          <mxGeometry x="397.5" y="2955" width="130" height="60" as="geometry" />
        </mxCell>
        <mxCell id="JUW6Wjf1Q6uM7Mt5fkci-105" value="" style="rounded=0;whiteSpace=wrap;html=1;" vertex="1" parent="1">
          <mxGeometry x="162.5" y="2675" width="600" height="480" as="geometry" />
        </mxCell>
        <mxCell id="JUW6Wjf1Q6uM7Mt5fkci-106" value="Footer Component" style="rounded=0;whiteSpace=wrap;html=1;" vertex="1" parent="1">
          <mxGeometry x="162.5" y="3155" width="600" height="80" as="geometry" />
        </mxCell>
        <mxCell id="JUW6Wjf1Q6uM7Mt5fkci-107" value="Github Repo" style="whiteSpace=wrap;html=1;aspect=fixed;" vertex="1" parent="1">
          <mxGeometry x="682.5" y="3165" width="60" height="60" as="geometry" />
        </mxCell>
        <mxCell id="JUW6Wjf1Q6uM7Mt5fkci-108" value="" style="rounded=0;whiteSpace=wrap;html=1;" vertex="1" parent="1">
          <mxGeometry x="162.5" y="2595" width="600" height="80" as="geometry" />
        </mxCell>
        <mxCell id="JUW6Wjf1Q6uM7Mt5fkci-109" value="Logo" style="rounded=0;whiteSpace=wrap;html=1;" vertex="1" parent="1">
          <mxGeometry x="352.5" y="2605" width="230" height="60" as="geometry" />
        </mxCell>
        <mxCell id="JUW6Wjf1Q6uM7Mt5fkci-110" value="Hamburger" style="rounded=0;whiteSpace=wrap;html=1;" vertex="1" parent="1">
          <mxGeometry x="182.5" y="2615" width="40" height="40" as="geometry" />
        </mxCell>
        <mxCell id="JUW6Wjf1Q6uM7Mt5fkci-111" value="Public Topics Page Graphic" style="rounded=0;whiteSpace=wrap;html=1;" vertex="1" parent="1">
          <mxGeometry x="352.5" y="2725" width="230" height="75" as="geometry" />
        </mxCell>
        <mxCell id="JUW6Wjf1Q6uM7Mt5fkci-113" value="Sign In/ Up" style="rounded=0;whiteSpace=wrap;html=1;" vertex="1" parent="1">
          <mxGeometry x="612.5" y="2605" width="130" height="60" as="geometry" />
        </mxCell>
        <mxCell id="JUW6Wjf1Q6uM7Mt5fkci-114" style="edgeStyle=orthogonalEdgeStyle;rounded=0;orthogonalLoop=1;jettySize=auto;html=1;" edge="1" parent="1" source="JUW6Wjf1Q6uM7Mt5fkci-115" target="JUW6Wjf1Q6uM7Mt5fkci-108">
          <mxGeometry relative="1" as="geometry" />
        </mxCell>
        <mxCell id="JUW6Wjf1Q6uM7Mt5fkci-115" value="Public Topics" style="rounded=0;whiteSpace=wrap;html=1;" vertex="1" parent="1">
          <mxGeometry x="167.5" y="2385" width="600" height="60" as="geometry" />
        </mxCell>
        <mxCell id="JUW6Wjf1Q6uM7Mt5fkci-116" value="Score" style="rounded=0;whiteSpace=wrap;html=1;" vertex="1" parent="1">
          <mxGeometry x="1285" y="2955" width="130" height="60" as="geometry" />
        </mxCell>
        <mxCell id="JUW6Wjf1Q6uM7Mt5fkci-117" value="" style="rounded=0;whiteSpace=wrap;html=1;" vertex="1" parent="1">
          <mxGeometry x="1050" y="2675" width="600" height="480" as="geometry" />
        </mxCell>
        <mxCell id="JUW6Wjf1Q6uM7Mt5fkci-118" value="Footer Component" style="rounded=0;whiteSpace=wrap;html=1;" vertex="1" parent="1">
          <mxGeometry x="1050" y="3155" width="600" height="80" as="geometry" />
        </mxCell>
        <mxCell id="JUW6Wjf1Q6uM7Mt5fkci-119" value="Github Repo" style="whiteSpace=wrap;html=1;aspect=fixed;" vertex="1" parent="1">
          <mxGeometry x="1570" y="3165" width="60" height="60" as="geometry" />
        </mxCell>
        <mxCell id="JUW6Wjf1Q6uM7Mt5fkci-120" value="" style="rounded=0;whiteSpace=wrap;html=1;" vertex="1" parent="1">
          <mxGeometry x="1050" y="2595" width="600" height="80" as="geometry" />
        </mxCell>
        <mxCell id="JUW6Wjf1Q6uM7Mt5fkci-121" value="Logo" style="rounded=0;whiteSpace=wrap;html=1;" vertex="1" parent="1">
          <mxGeometry x="1240" y="2605" width="230" height="60" as="geometry" />
        </mxCell>
        <mxCell id="JUW6Wjf1Q6uM7Mt5fkci-122" value="Hamburger" style="rounded=0;whiteSpace=wrap;html=1;" vertex="1" parent="1">
          <mxGeometry x="1070" y="2615" width="40" height="40" as="geometry" />
        </mxCell>
        <mxCell id="JUW6Wjf1Q6uM7Mt5fkci-123" value="About Page Graphic" style="rounded=0;whiteSpace=wrap;html=1;" vertex="1" parent="1">
          <mxGeometry x="1240" y="2735" width="230" height="140" as="geometry" />
        </mxCell>
        <mxCell id="JUW6Wjf1Q6uM7Mt5fkci-124" value="About Page Text" style="rounded=1;whiteSpace=wrap;html=1;" vertex="1" parent="1">
          <mxGeometry x="1170" y="2895" width="370" height="260" as="geometry" />
        </mxCell>
        <mxCell id="JUW6Wjf1Q6uM7Mt5fkci-125" value="Sign In/ Up" style="rounded=0;whiteSpace=wrap;html=1;" vertex="1" parent="1">
          <mxGeometry x="1500" y="2605" width="130" height="60" as="geometry" />
        </mxCell>
        <mxCell id="JUW6Wjf1Q6uM7Mt5fkci-126" style="edgeStyle=orthogonalEdgeStyle;rounded=0;orthogonalLoop=1;jettySize=auto;html=1;" edge="1" parent="1" source="JUW6Wjf1Q6uM7Mt5fkci-127" target="JUW6Wjf1Q6uM7Mt5fkci-120">
          <mxGeometry relative="1" as="geometry" />
        </mxCell>
        <mxCell id="JUW6Wjf1Q6uM7Mt5fkci-127" value="About" style="rounded=0;whiteSpace=wrap;html=1;" vertex="1" parent="1">
          <mxGeometry x="1055" y="2385" width="600" height="60" as="geometry" />
        </mxCell>
        <mxCell id="JUW6Wjf1Q6uM7Mt5fkci-128" value="Score" style="rounded=0;whiteSpace=wrap;html=1;" vertex="1" parent="1">
          <mxGeometry x="-475" y="4100" width="130" height="60" as="geometry" />
        </mxCell>
        <mxCell id="JUW6Wjf1Q6uM7Mt5fkci-129" value="" style="rounded=0;whiteSpace=wrap;html=1;" vertex="1" parent="1">
          <mxGeometry x="-710" y="3820" width="600" height="480" as="geometry" />
        </mxCell>
        <mxCell id="JUW6Wjf1Q6uM7Mt5fkci-130" value="Footer Component" style="rounded=0;whiteSpace=wrap;html=1;" vertex="1" parent="1">
          <mxGeometry x="-710" y="4300" width="600" height="80" as="geometry" />
        </mxCell>
        <mxCell id="JUW6Wjf1Q6uM7Mt5fkci-131" value="Github Repo" style="whiteSpace=wrap;html=1;aspect=fixed;" vertex="1" parent="1">
          <mxGeometry x="-190" y="4310" width="60" height="60" as="geometry" />
        </mxCell>
        <mxCell id="JUW6Wjf1Q6uM7Mt5fkci-132" value="" style="rounded=0;whiteSpace=wrap;html=1;" vertex="1" parent="1">
          <mxGeometry x="-710" y="3740" width="600" height="80" as="geometry" />
        </mxCell>
        <mxCell id="JUW6Wjf1Q6uM7Mt5fkci-133" value="Logo" style="rounded=0;whiteSpace=wrap;html=1;" vertex="1" parent="1">
          <mxGeometry x="-520" y="3750" width="230" height="60" as="geometry" />
        </mxCell>
        <mxCell id="JUW6Wjf1Q6uM7Mt5fkci-134" value="Hamburger" style="rounded=0;whiteSpace=wrap;html=1;" vertex="1" parent="1">
          <mxGeometry x="-690" y="3760" width="40" height="40" as="geometry" />
        </mxCell>
        <mxCell id="JUW6Wjf1Q6uM7Mt5fkci-135" value="User Topic Creation Welcome Message" style="rounded=0;whiteSpace=wrap;html=1;" vertex="1" parent="1">
          <mxGeometry x="-600" y="3850" width="420" height="70" as="geometry" />
        </mxCell>
        <mxCell id="JUW6Wjf1Q6uM7Mt5fkci-137" value="Sign In/ Up" style="rounded=0;whiteSpace=wrap;html=1;" vertex="1" parent="1">
          <mxGeometry x="-260" y="3750" width="130" height="60" as="geometry" />
        </mxCell>
        <mxCell id="JUW6Wjf1Q6uM7Mt5fkci-138" style="edgeStyle=orthogonalEdgeStyle;rounded=0;orthogonalLoop=1;jettySize=auto;html=1;" edge="1" parent="1" source="JUW6Wjf1Q6uM7Mt5fkci-139" target="JUW6Wjf1Q6uM7Mt5fkci-132">
          <mxGeometry relative="1" as="geometry" />
        </mxCell>
        <mxCell id="JUW6Wjf1Q6uM7Mt5fkci-139" value="Topic Creation" style="rounded=0;whiteSpace=wrap;html=1;" vertex="1" parent="1">
          <mxGeometry x="-705" y="3530" width="600" height="60" as="geometry" />
        </mxCell>
        <mxCell id="JUW6Wjf1Q6uM7Mt5fkci-140" style="edgeStyle=orthogonalEdgeStyle;rounded=0;orthogonalLoop=1;jettySize=auto;html=1;exitX=0.5;exitY=1;exitDx=0;exitDy=0;" edge="1" parent="1" source="JUW6Wjf1Q6uM7Mt5fkci-75" target="JUW6Wjf1Q6uM7Mt5fkci-75">
          <mxGeometry relative="1" as="geometry" />
        </mxCell>
        <mxCell id="JUW6Wjf1Q6uM7Mt5fkci-145" value="Google Auth" style="rounded=0;whiteSpace=wrap;html=1;" vertex="1" parent="1">
          <mxGeometry x="1240" y="1690" width="230" height="110" as="geometry" />
        </mxCell>
        <mxCell id="JUW6Wjf1Q6uM7Mt5fkci-146" style="edgeStyle=orthogonalEdgeStyle;rounded=0;orthogonalLoop=1;jettySize=auto;html=1;exitX=0.5;exitY=1;exitDx=0;exitDy=0;" edge="1" parent="1" source="JUW6Wjf1Q6uM7Mt5fkci-87" target="JUW6Wjf1Q6uM7Mt5fkci-87">
          <mxGeometry relative="1" as="geometry" />
        </mxCell>
        <mxCell id="JUW6Wjf1Q6uM7Mt5fkci-147" value="Welcome Message" style="swimlane;fontStyle=0;childLayout=stackLayout;horizontal=1;startSize=30;horizontalStack=0;resizeParent=1;resizeParentMax=0;resizeLast=0;collapsible=1;marginBottom=0;whiteSpace=wrap;html=1;align=left;" vertex="1" parent="1">
          <mxGeometry x="2120" y="1650" width="230" height="240" as="geometry" />
        </mxCell>
        <mxCell id="JUW6Wjf1Q6uM7Mt5fkci-148" value="Profile Information" style="text;strokeColor=none;fillColor=none;align=left;verticalAlign=middle;spacingLeft=4;spacingRight=4;overflow=hidden;points=[[0,0.5],[1,0.5]];portConstraint=eastwest;rotatable=0;whiteSpace=wrap;html=1;" vertex="1" parent="JUW6Wjf1Q6uM7Mt5fkci-147">
          <mxGeometry y="30" width="230" height="30" as="geometry" />
        </mxCell>
        <mxCell id="JUW6Wjf1Q6uM7Mt5fkci-149" value="Connected Accounts" style="text;strokeColor=none;fillColor=none;align=left;verticalAlign=middle;spacingLeft=4;spacingRight=4;overflow=hidden;points=[[0,0.5],[1,0.5]];portConstraint=eastwest;rotatable=0;whiteSpace=wrap;html=1;" vertex="1" parent="JUW6Wjf1Q6uM7Mt5fkci-147">
          <mxGeometry y="60" width="230" height="30" as="geometry" />
        </mxCell>
        <mxCell id="JUW6Wjf1Q6uM7Mt5fkci-150" value="Game Preferences" style="text;strokeColor=none;fillColor=none;align=left;verticalAlign=middle;spacingLeft=4;spacingRight=4;overflow=hidden;points=[[0,0.5],[1,0.5]];portConstraint=eastwest;rotatable=0;whiteSpace=wrap;html=1;" vertex="1" parent="JUW6Wjf1Q6uM7Mt5fkci-147">
          <mxGeometry y="90" width="230" height="30" as="geometry" />
        </mxCell>
        <mxCell id="JUW6Wjf1Q6uM7Mt5fkci-152" value="Statistics" style="text;strokeColor=none;fillColor=none;align=left;verticalAlign=middle;spacingLeft=4;spacingRight=4;overflow=hidden;points=[[0,0.5],[1,0.5]];portConstraint=eastwest;rotatable=0;whiteSpace=wrap;html=1;" vertex="1" parent="JUW6Wjf1Q6uM7Mt5fkci-147">
          <mxGeometry y="120" width="230" height="30" as="geometry" />
        </mxCell>
        <mxCell id="JUW6Wjf1Q6uM7Mt5fkci-153" value="Game History" style="text;strokeColor=none;fillColor=none;align=left;verticalAlign=middle;spacingLeft=4;spacingRight=4;overflow=hidden;points=[[0,0.5],[1,0.5]];portConstraint=eastwest;rotatable=0;whiteSpace=wrap;html=1;" vertex="1" parent="JUW6Wjf1Q6uM7Mt5fkci-147">
          <mxGeometry y="150" width="230" height="30" as="geometry" />
        </mxCell>
        <mxCell id="JUW6Wjf1Q6uM7Mt5fkci-154" value="Privacy Settings" style="text;strokeColor=none;fillColor=none;align=left;verticalAlign=middle;spacingLeft=4;spacingRight=4;overflow=hidden;points=[[0,0.5],[1,0.5]];portConstraint=eastwest;rotatable=0;whiteSpace=wrap;html=1;" vertex="1" parent="JUW6Wjf1Q6uM7Mt5fkci-147">
          <mxGeometry y="180" width="230" height="30" as="geometry" />
        </mxCell>
        <mxCell id="JUW6Wjf1Q6uM7Mt5fkci-155" value="Log Out" style="text;strokeColor=none;fillColor=none;align=left;verticalAlign=middle;spacingLeft=4;spacingRight=4;overflow=hidden;points=[[0,0.5],[1,0.5]];portConstraint=eastwest;rotatable=0;whiteSpace=wrap;html=1;" vertex="1" parent="JUW6Wjf1Q6uM7Mt5fkci-147">
          <mxGeometry y="210" width="230" height="30" as="geometry" />
        </mxCell>
        <mxCell id="JUW6Wjf1Q6uM7Mt5fkci-158" value="Your Topics" style="swimlane;fontStyle=0;childLayout=stackLayout;horizontal=1;startSize=30;horizontalStack=0;resizeParent=1;resizeParentMax=0;resizeLast=0;collapsible=1;marginBottom=0;whiteSpace=wrap;html=1;" vertex="1" parent="1">
          <mxGeometry x="-515" y="2895" width="230" height="60" as="geometry" />
        </mxCell>
        <mxCell id="JUW6Wjf1Q6uM7Mt5fkci-159" value="Topics&amp;nbsp; descinding" style="text;strokeColor=none;fillColor=none;align=left;verticalAlign=middle;spacingLeft=4;spacingRight=4;overflow=hidden;points=[[0,0.5],[1,0.5]];portConstraint=eastwest;rotatable=0;whiteSpace=wrap;html=1;" vertex="1" parent="JUW6Wjf1Q6uM7Mt5fkci-158">
          <mxGeometry y="30" width="230" height="30" as="geometry" />
        </mxCell>
        <mxCell id="JUW6Wjf1Q6uM7Mt5fkci-164" value="" style="rounded=0;whiteSpace=wrap;html=1;" vertex="1" parent="1">
          <mxGeometry x="-305" y="2870" width="20" height="20" as="geometry" />
        </mxCell>
        <mxCell id="JUW6Wjf1Q6uM7Mt5fkci-166" style="edgeStyle=orthogonalEdgeStyle;rounded=0;orthogonalLoop=1;jettySize=auto;html=1;exitX=0;exitY=0.5;exitDx=0;exitDy=0;entryX=1;entryY=0.5;entryDx=0;entryDy=0;" edge="1" parent="1" source="JUW6Wjf1Q6uM7Mt5fkci-165" target="JUW6Wjf1Q6uM7Mt5fkci-164">
          <mxGeometry relative="1" as="geometry" />
        </mxCell>
        <mxCell id="JUW6Wjf1Q6uM7Mt5fkci-165" value="Sort" style="text;html=1;align=center;verticalAlign=middle;whiteSpace=wrap;rounded=0;" vertex="1" parent="1">
          <mxGeometry x="-250" y="2865" width="50" height="30" as="geometry" />
        </mxCell>
        <mxCell id="JUW6Wjf1Q6uM7Mt5fkci-167" value="Create New Topic" style="rounded=0;whiteSpace=wrap;html=1;" vertex="1" parent="1">
          <mxGeometry x="-515" y="2850" width="115" height="40" as="geometry" />
        </mxCell>
        <mxCell id="JUW6Wjf1Q6uM7Mt5fkci-168" value="List" style="swimlane;fontStyle=0;childLayout=stackLayout;horizontal=1;startSize=30;horizontalStack=0;resizeParent=1;resizeParentMax=0;resizeLast=0;collapsible=1;marginBottom=0;whiteSpace=wrap;html=1;" vertex="1" parent="1">
          <mxGeometry x="230" y="2850" width="140" height="120" as="geometry" />
        </mxCell>
        <mxCell id="JUW6Wjf1Q6uM7Mt5fkci-169" value="Item 1" style="text;strokeColor=none;fillColor=none;align=left;verticalAlign=middle;spacingLeft=4;spacingRight=4;overflow=hidden;points=[[0,0.5],[1,0.5]];portConstraint=eastwest;rotatable=0;whiteSpace=wrap;html=1;" vertex="1" parent="JUW6Wjf1Q6uM7Mt5fkci-168">
          <mxGeometry y="30" width="140" height="30" as="geometry" />
        </mxCell>
        <mxCell id="JUW6Wjf1Q6uM7Mt5fkci-170" value="Item 2" style="text;strokeColor=none;fillColor=none;align=left;verticalAlign=middle;spacingLeft=4;spacingRight=4;overflow=hidden;points=[[0,0.5],[1,0.5]];portConstraint=eastwest;rotatable=0;whiteSpace=wrap;html=1;" vertex="1" parent="JUW6Wjf1Q6uM7Mt5fkci-168">
          <mxGeometry y="60" width="140" height="30" as="geometry" />
        </mxCell>
        <mxCell id="JUW6Wjf1Q6uM7Mt5fkci-171" value="Item 3" style="text;strokeColor=none;fillColor=none;align=left;verticalAlign=middle;spacingLeft=4;spacingRight=4;overflow=hidden;points=[[0,0.5],[1,0.5]];portConstraint=eastwest;rotatable=0;whiteSpace=wrap;html=1;" vertex="1" parent="JUW6Wjf1Q6uM7Mt5fkci-168">
          <mxGeometry y="90" width="140" height="30" as="geometry" />
        </mxCell>
        <mxCell id="JUW6Wjf1Q6uM7Mt5fkci-172" value="List" style="swimlane;fontStyle=0;childLayout=stackLayout;horizontal=1;startSize=30;horizontalStack=0;resizeParent=1;resizeParentMax=0;resizeLast=0;collapsible=1;marginBottom=0;whiteSpace=wrap;html=1;" vertex="1" parent="1">
          <mxGeometry x="400" y="2850" width="140" height="120" as="geometry" />
        </mxCell>
        <mxCell id="JUW6Wjf1Q6uM7Mt5fkci-173" value="Item 1" style="text;strokeColor=none;fillColor=none;align=left;verticalAlign=middle;spacingLeft=4;spacingRight=4;overflow=hidden;points=[[0,0.5],[1,0.5]];portConstraint=eastwest;rotatable=0;whiteSpace=wrap;html=1;" vertex="1" parent="JUW6Wjf1Q6uM7Mt5fkci-172">
          <mxGeometry y="30" width="140" height="30" as="geometry" />
        </mxCell>
        <mxCell id="JUW6Wjf1Q6uM7Mt5fkci-174" value="Item 2" style="text;strokeColor=none;fillColor=none;align=left;verticalAlign=middle;spacingLeft=4;spacingRight=4;overflow=hidden;points=[[0,0.5],[1,0.5]];portConstraint=eastwest;rotatable=0;whiteSpace=wrap;html=1;" vertex="1" parent="JUW6Wjf1Q6uM7Mt5fkci-172">
          <mxGeometry y="60" width="140" height="30" as="geometry" />
        </mxCell>
        <mxCell id="JUW6Wjf1Q6uM7Mt5fkci-175" value="Item 3" style="text;strokeColor=none;fillColor=none;align=left;verticalAlign=middle;spacingLeft=4;spacingRight=4;overflow=hidden;points=[[0,0.5],[1,0.5]];portConstraint=eastwest;rotatable=0;whiteSpace=wrap;html=1;" vertex="1" parent="JUW6Wjf1Q6uM7Mt5fkci-172">
          <mxGeometry y="90" width="140" height="30" as="geometry" />
        </mxCell>
        <mxCell id="JUW6Wjf1Q6uM7Mt5fkci-176" value="List" style="swimlane;fontStyle=0;childLayout=stackLayout;horizontal=1;startSize=30;horizontalStack=0;resizeParent=1;resizeParentMax=0;resizeLast=0;collapsible=1;marginBottom=0;whiteSpace=wrap;html=1;" vertex="1" parent="1">
          <mxGeometry x="570" y="2850" width="140" height="120" as="geometry" />
        </mxCell>
        <mxCell id="JUW6Wjf1Q6uM7Mt5fkci-177" value="Item 1" style="text;strokeColor=none;fillColor=none;align=left;verticalAlign=middle;spacingLeft=4;spacingRight=4;overflow=hidden;points=[[0,0.5],[1,0.5]];portConstraint=eastwest;rotatable=0;whiteSpace=wrap;html=1;" vertex="1" parent="JUW6Wjf1Q6uM7Mt5fkci-176">
          <mxGeometry y="30" width="140" height="30" as="geometry" />
        </mxCell>
        <mxCell id="JUW6Wjf1Q6uM7Mt5fkci-178" value="Item 2" style="text;strokeColor=none;fillColor=none;align=left;verticalAlign=middle;spacingLeft=4;spacingRight=4;overflow=hidden;points=[[0,0.5],[1,0.5]];portConstraint=eastwest;rotatable=0;whiteSpace=wrap;html=1;" vertex="1" parent="JUW6Wjf1Q6uM7Mt5fkci-176">
          <mxGeometry y="60" width="140" height="30" as="geometry" />
        </mxCell>
        <mxCell id="JUW6Wjf1Q6uM7Mt5fkci-179" value="Item 3" style="text;strokeColor=none;fillColor=none;align=left;verticalAlign=middle;spacingLeft=4;spacingRight=4;overflow=hidden;points=[[0,0.5],[1,0.5]];portConstraint=eastwest;rotatable=0;whiteSpace=wrap;html=1;" vertex="1" parent="JUW6Wjf1Q6uM7Mt5fkci-176">
          <mxGeometry y="90" width="140" height="30" as="geometry" />
        </mxCell>
        <mxCell id="JUW6Wjf1Q6uM7Mt5fkci-180" value="List" style="swimlane;fontStyle=0;childLayout=stackLayout;horizontal=1;startSize=30;horizontalStack=0;resizeParent=1;resizeParentMax=0;resizeLast=0;collapsible=1;marginBottom=0;whiteSpace=wrap;html=1;" vertex="1" parent="1">
          <mxGeometry x="230" y="3000" width="140" height="120" as="geometry" />
        </mxCell>
        <mxCell id="JUW6Wjf1Q6uM7Mt5fkci-181" value="Item 1" style="text;strokeColor=none;fillColor=none;align=left;verticalAlign=middle;spacingLeft=4;spacingRight=4;overflow=hidden;points=[[0,0.5],[1,0.5]];portConstraint=eastwest;rotatable=0;whiteSpace=wrap;html=1;" vertex="1" parent="JUW6Wjf1Q6uM7Mt5fkci-180">
          <mxGeometry y="30" width="140" height="30" as="geometry" />
        </mxCell>
        <mxCell id="JUW6Wjf1Q6uM7Mt5fkci-182" value="Item 2" style="text;strokeColor=none;fillColor=none;align=left;verticalAlign=middle;spacingLeft=4;spacingRight=4;overflow=hidden;points=[[0,0.5],[1,0.5]];portConstraint=eastwest;rotatable=0;whiteSpace=wrap;html=1;" vertex="1" parent="JUW6Wjf1Q6uM7Mt5fkci-180">
          <mxGeometry y="60" width="140" height="30" as="geometry" />
        </mxCell>
        <mxCell id="JUW6Wjf1Q6uM7Mt5fkci-183" value="Item 3" style="text;strokeColor=none;fillColor=none;align=left;verticalAlign=middle;spacingLeft=4;spacingRight=4;overflow=hidden;points=[[0,0.5],[1,0.5]];portConstraint=eastwest;rotatable=0;whiteSpace=wrap;html=1;" vertex="1" parent="JUW6Wjf1Q6uM7Mt5fkci-180">
          <mxGeometry y="90" width="140" height="30" as="geometry" />
        </mxCell>
        <mxCell id="JUW6Wjf1Q6uM7Mt5fkci-184" value="List" style="swimlane;fontStyle=0;childLayout=stackLayout;horizontal=1;startSize=30;horizontalStack=0;resizeParent=1;resizeParentMax=0;resizeLast=0;collapsible=1;marginBottom=0;whiteSpace=wrap;html=1;" vertex="1" parent="1">
          <mxGeometry x="397.5" y="3000" width="140" height="120" as="geometry" />
        </mxCell>
        <mxCell id="JUW6Wjf1Q6uM7Mt5fkci-185" value="Item 1" style="text;strokeColor=none;fillColor=none;align=left;verticalAlign=middle;spacingLeft=4;spacingRight=4;overflow=hidden;points=[[0,0.5],[1,0.5]];portConstraint=eastwest;rotatable=0;whiteSpace=wrap;html=1;" vertex="1" parent="JUW6Wjf1Q6uM7Mt5fkci-184">
          <mxGeometry y="30" width="140" height="30" as="geometry" />
        </mxCell>
        <mxCell id="JUW6Wjf1Q6uM7Mt5fkci-186" value="Item 2" style="text;strokeColor=none;fillColor=none;align=left;verticalAlign=middle;spacingLeft=4;spacingRight=4;overflow=hidden;points=[[0,0.5],[1,0.5]];portConstraint=eastwest;rotatable=0;whiteSpace=wrap;html=1;" vertex="1" parent="JUW6Wjf1Q6uM7Mt5fkci-184">
          <mxGeometry y="60" width="140" height="30" as="geometry" />
        </mxCell>
        <mxCell id="JUW6Wjf1Q6uM7Mt5fkci-187" value="Item 3" style="text;strokeColor=none;fillColor=none;align=left;verticalAlign=middle;spacingLeft=4;spacingRight=4;overflow=hidden;points=[[0,0.5],[1,0.5]];portConstraint=eastwest;rotatable=0;whiteSpace=wrap;html=1;" vertex="1" parent="JUW6Wjf1Q6uM7Mt5fkci-184">
          <mxGeometry y="90" width="140" height="30" as="geometry" />
        </mxCell>
        <mxCell id="JUW6Wjf1Q6uM7Mt5fkci-188" value="List" style="swimlane;fontStyle=0;childLayout=stackLayout;horizontal=1;startSize=30;horizontalStack=0;resizeParent=1;resizeParentMax=0;resizeLast=0;collapsible=1;marginBottom=0;whiteSpace=wrap;html=1;" vertex="1" parent="1">
          <mxGeometry x="570" y="3000" width="140" height="120" as="geometry" />
        </mxCell>
        <mxCell id="JUW6Wjf1Q6uM7Mt5fkci-189" value="Item 1" style="text;strokeColor=none;fillColor=none;align=left;verticalAlign=middle;spacingLeft=4;spacingRight=4;overflow=hidden;points=[[0,0.5],[1,0.5]];portConstraint=eastwest;rotatable=0;whiteSpace=wrap;html=1;" vertex="1" parent="JUW6Wjf1Q6uM7Mt5fkci-188">
          <mxGeometry y="30" width="140" height="30" as="geometry" />
        </mxCell>
        <mxCell id="JUW6Wjf1Q6uM7Mt5fkci-190" value="Item 2" style="text;strokeColor=none;fillColor=none;align=left;verticalAlign=middle;spacingLeft=4;spacingRight=4;overflow=hidden;points=[[0,0.5],[1,0.5]];portConstraint=eastwest;rotatable=0;whiteSpace=wrap;html=1;" vertex="1" parent="JUW6Wjf1Q6uM7Mt5fkci-188">
          <mxGeometry y="60" width="140" height="30" as="geometry" />
        </mxCell>
        <mxCell id="JUW6Wjf1Q6uM7Mt5fkci-191" value="Item 3" style="text;strokeColor=none;fillColor=none;align=left;verticalAlign=middle;spacingLeft=4;spacingRight=4;overflow=hidden;points=[[0,0.5],[1,0.5]];portConstraint=eastwest;rotatable=0;whiteSpace=wrap;html=1;" vertex="1" parent="JUW6Wjf1Q6uM7Mt5fkci-188">
          <mxGeometry y="90" width="140" height="30" as="geometry" />
        </mxCell>
        <mxCell id="JUW6Wjf1Q6uM7Mt5fkci-192" value="Category (Optional)" style="rounded=0;whiteSpace=wrap;html=1;" vertex="1" parent="1">
          <mxGeometry x="-600" y="3960" width="420" height="60" as="geometry" />
        </mxCell>
        <mxCell id="JUW6Wjf1Q6uM7Mt5fkci-193" value="Topic Name" style="rounded=0;whiteSpace=wrap;html=1;" vertex="1" parent="1">
          <mxGeometry x="-600" y="4030" width="420" height="60" as="geometry" />
        </mxCell>
        <mxCell id="JUW6Wjf1Q6uM7Mt5fkci-194" value="Question" style="rounded=0;whiteSpace=wrap;html=1;" vertex="1" parent="1">
          <mxGeometry x="-600" y="4100" width="420" height="60" as="geometry" />
        </mxCell>
        <mxCell id="JUW6Wjf1Q6uM7Mt5fkci-195" value="Correct Answer" style="swimlane;fontStyle=0;childLayout=stackLayout;horizontal=1;startSize=30;horizontalStack=0;resizeParent=1;resizeParentMax=0;resizeLast=0;collapsible=1;marginBottom=0;whiteSpace=wrap;html=1;" vertex="1" parent="1">
          <mxGeometry x="-600" y="4170" width="420" height="120" as="geometry" />
        </mxCell>
        <mxCell id="JUW6Wjf1Q6uM7Mt5fkci-196" value="Alternate Answer" style="text;strokeColor=none;fillColor=none;align=left;verticalAlign=middle;spacingLeft=4;spacingRight=4;overflow=hidden;points=[[0,0.5],[1,0.5]];portConstraint=eastwest;rotatable=0;whiteSpace=wrap;html=1;" vertex="1" parent="JUW6Wjf1Q6uM7Mt5fkci-195">
          <mxGeometry y="30" width="420" height="30" as="geometry" />
        </mxCell>
        <mxCell id="JUW6Wjf1Q6uM7Mt5fkci-197" value="Alternate Answer" style="text;strokeColor=none;fillColor=none;align=left;verticalAlign=middle;spacingLeft=4;spacingRight=4;overflow=hidden;points=[[0,0.5],[1,0.5]];portConstraint=eastwest;rotatable=0;whiteSpace=wrap;html=1;" vertex="1" parent="JUW6Wjf1Q6uM7Mt5fkci-195">
          <mxGeometry y="60" width="420" height="30" as="geometry" />
        </mxCell>
        <mxCell id="JUW6Wjf1Q6uM7Mt5fkci-198" value="Alternate Answer" style="text;strokeColor=none;fillColor=none;align=left;verticalAlign=middle;spacingLeft=4;spacingRight=4;overflow=hidden;points=[[0,0.5],[1,0.5]];portConstraint=eastwest;rotatable=0;whiteSpace=wrap;html=1;" vertex="1" parent="JUW6Wjf1Q6uM7Mt5fkci-195">
          <mxGeometry y="90" width="420" height="30" as="geometry" />
        </mxCell>
        <mxCell id="JUW6Wjf1Q6uM7Mt5fkci-199" value="" style="rounded=0;whiteSpace=wrap;html=1;" vertex="1" parent="1">
          <mxGeometry x="-240" y="3980" width="30" height="30" as="geometry" />
        </mxCell>
        <mxCell id="JUW6Wjf1Q6uM7Mt5fkci-201" style="edgeStyle=orthogonalEdgeStyle;rounded=0;orthogonalLoop=1;jettySize=auto;html=1;exitX=0;exitY=0.5;exitDx=0;exitDy=0;entryX=1;entryY=0.5;entryDx=0;entryDy=0;" edge="1" parent="1" source="JUW6Wjf1Q6uM7Mt5fkci-200" target="JUW6Wjf1Q6uM7Mt5fkci-199">
          <mxGeometry relative="1" as="geometry" />
        </mxCell>
        <mxCell id="JUW6Wjf1Q6uM7Mt5fkci-200" value="Public Toggle" style="text;html=1;align=center;verticalAlign=middle;whiteSpace=wrap;rounded=0;" vertex="1" parent="1">
          <mxGeometry x="-90" y="3980" width="60" height="30" as="geometry" />
        </mxCell>
      </root>
    </mxGraphModel>
  </diagram>
</mxfile>
